<svg xmlns="http://www.w3.org/2000/svg" viewBox="0 0 22 22"><defs><style>.cls-1{fill:#fff;}</style></defs><title>img_search</title><g id="Startseite_mobil-gelb"><path class="cls-1" d="M20.6,18l-4.81-4.81a7.83,7.83,0,0,0,1.14-4.09A8.29,8.29,0,0,0,8.82.95,7.87,7.87,0,0,0,.95,8.82a8.29,8.29,0,0,0,8.12,8.12,7.83,7.83,0,0,0,4-1.07l4.83,4.84a1.21,1.21,0,0,0,1.71,0l1.2-1.2C21.25,19,21.08,18.43,20.6,18ZM3.37,8.82A5.45,5.45,0,0,1,8.82,3.37a5.87,5.87,0,0,1,5.69,5.69,5.45,5.45,0,0,1-5.45,5.45A5.87,5.87,0,0,1,3.37,8.82Z"/></g></svg>